<svg xmlns="http://www.w3.org/2000/svg" id="telegram" width="59.275" height="59.275" viewBox="0 0 59.275 59.275">
    <defs>
        <style>
            .cls-1{fill:#7aa5da}.cls-2{fill:#5786b5}.cls-3{fill:#fff}.cls-4{fill:#9ec2e5}.cls-5{fill:#d1d1d1}.cls-6{fill:#dadde0}.cls-7{fill:#adbcc9}
        </style>
    </defs>
    <circle id="Ellipse_138" cx="29.637" cy="29.637" r="29.637" class="cls-1" data-name="Ellipse 138"/>
    <path id="Path_1766" d="M247.761 149.759l-13.156-13.134-21.43 26.121 15.43 15.43a29.647 29.647 0 0 0 19.165-27.732c0-.228-.003-.457-.009-.685z" class="cls-2" data-name="Path 1766" transform="translate(-188.495 -120.808)"/>
    <path id="Path_1767" d="M141.215 132.665a1.6 1.6 0 0 1 2.144 1.814l-5.3 25.329a1.669 1.669 0 0 1-2.62 1l-8-5.872-4.077 4.163a1.355 1.355 0 0 1-2.259-.541l-2.942-9.338-7.885-2.329a1.131 1.131 0 0 1-.092-2.139zm-3.89 5.62a.376.376 0 0 0-.447-.6l-17.02 10.556a.774.774 0 0 0-.331.888l2.321 10.192a.148.148 0 0 0 .289-.028l.519-7.768a.768.768 0 0 1 .256-.495z" class="cls-3" data-name="Path 1767" transform="translate(-96.792 -117.208)"/>
    <path id="Path_1768" d="M213.462 176.407a.376.376 0 0 1 .447.6L199.5 189.753a.769.769 0 0 0-.256.495l-.519 7.768a.148.148 0 0 1-.289.028l-2.321-10.192a.773.773 0 0 1 .331-.888z" class="cls-4" data-name="Path 1768" transform="translate(-173.376 -155.93)"/>
    <path id="Path_1769" d="M121.933 159.428a1.331 1.331 0 0 1-.828-.864l-2.942-9.338-7.885-2.329a1.132 1.132 0 0 1-.092-2.139l31.03-12.09a1.591 1.591 0 0 1 1.928.631 1.669 1.669 0 0 0-.253-.3l-21.052 17.186v.752l-.116-.084.116 4.738v3.8a.745.745 0 0 0 .094.036z" class="cls-3" data-name="Path 1769" transform="translate(-96.793 -117.209)"/>
    <g id="Group_103" data-name="Group 103" transform="translate(25.046 15.787)">
        <path id="Path_1770" d="M237.9 137.424a1.735 1.735 0 0 1-.034.425l-5.3 25.329a1.669 1.669 0 0 1-2.62 1l-8-5.872-5.6-4.008v-.752l21.052-17.186a1.665 1.665 0 0 1 .253.3l.042.068c.014.022.026.048.038.07s.024.048.034.072l.032.076c.01.026.018.046.026.072a1.586 1.586 0 0 1 .06.242l.017.164z" class="cls-5" data-name="Path 1770" transform="translate(-216.343 -136.364)"/>
        <path id="Path_1771" d="M221.946 295.317l-4.077 4.163c-.034.034-.07.068-.106.1s-.072.056-.11.082a1.41 1.41 0 0 1-.235.126.99.99 0 0 1-.124.042 1.352 1.352 0 0 1-.527.048c-.046 0-.092-.012-.136-.02a.06.06 0 0 1-.018 0c-.044-.012-.088-.024-.132-.038a.179.179 0 0 1-.042-.016l-.094-3.836v-4.658z" class="cls-5" data-name="Path 1771" transform="translate(-216.344 -273.372)"/>
    </g>
    <g id="Group_104" data-name="Group 104" transform="translate(25.467 41.994)">
        <path id="Path_1772" d="M227.762 362.73c-.036.03-.072.058-.11.084.038-.028.074-.054.11-.084z" class="cls-6" data-name="Path 1772" transform="translate(-226.764 -362.73)"/>
        <path id="Path_1773" d="M227.637 363.437z" class="cls-6" data-name="Path 1773" transform="translate(-226.749 -363.355)"/>
        <path id="Path_1774" d="M225.6 363.581a1.405 1.405 0 0 0 .235-.126 1.51 1.51 0 0 1-.235.126z" class="cls-6" data-name="Path 1774" transform="translate(-224.95 -363.371)"/>
        <path id="Path_1775" d="M219.981 364.95a1.351 1.351 0 0 0 .527-.048 1.27 1.27 0 0 1-.385.058 1.123 1.123 0 0 1-.118-.006.048.048 0 0 1-.024-.004z" class="cls-6" data-name="Path 1775" transform="translate(-219.981 -364.651)"/>
    </g>
    <g id="Group_105" data-name="Group 105" transform="translate(25.372 42.281)">
        <path id="Path_1776" d="M220.306 365.356a1.123 1.123 0 0 1-.118-.006 1.123 1.123 0 0 0 .118.006z" class="cls-3" data-name="Path 1776" transform="translate(-220.068 -365.334)"/>
        <path id="Path_1777" d="M219.25 365.224a.051.051 0 0 0 .024 0 .784.784 0 0 1-.12-.016.74.74 0 0 0 .096.016z" class="cls-3" data-name="Path 1777" transform="translate(-219.154 -365.212)"/>
    </g>
    <g id="Group_106" data-name="Group 106" transform="translate(25.182 42.231)">
        <path id="Path_1778" d="M218.945 365.164a.792.792 0 0 1-.1-.012.229.229 0 0 1-.04-.008c.048.008.095.016.14.02z" class="cls-6" data-name="Path 1778" transform="translate(-218.659 -365.102)"/>
        <path id="Path_1779" d="M217.516 364.782c.044.014.088.026.132.038l-.054-.012a.071.071 0 0 1-.022-.008.307.307 0 0 1-.056-.018z" class="cls-6" data-name="Path 1779" transform="translate(-217.516 -364.782)"/>
    </g>
    <g id="Group_107" data-name="Group 107" transform="translate(25.148 42.221)">
        <path id="Path_1780" d="M218.188 365.006l.054.012a.254.254 0 0 1-.054-.012z" class="cls-3" data-name="Path 1780" transform="translate(-218.076 -364.97)"/>
        <path id="Path_1781" d="M217.257 364.706a.3.3 0 0 0 .056.018.525.525 0 0 1-.09-.028.216.216 0 0 0 .034.01z" class="cls-3" data-name="Path 1781" transform="translate(-217.223 -364.696)"/>
    </g>
    <path id="Path_1782" d="M217.2 364.661a.224.224 0 0 1-.034-.01h-.008a.186.186 0 0 0 .042.01z" class="cls-6" data-name="Path 1782" transform="translate(-192.014 -322.43)"/>
    <path id="Path_1783" d="M216.343 331.511l.094 3.836a.753.753 0 0 1-.094-.036z" class="cls-5" data-name="Path 1783" transform="translate(-191.297 -293.132)"/>
    <path id="Path_1784" d="M215.459 290.669v4.654l-.116-4.738z" class="cls-6" data-name="Path 1784" transform="translate(-190.413 -256.944)"/>
    <path id="Path_1785" d="M213.908 177.008l-14.413 12.745a.769.769 0 0 0-.255.495l-.518 7.768a.149.149 0 0 1-.291.028l-2.32-10.193a.773.773 0 0 1 .331-.888l17.02-10.556a.376.376 0 0 1 .446.601z" class="cls-7" data-name="Path 1785" transform="translate(-173.375 -155.931)"/>
</svg>
