<svg xmlns="http://www.w3.org/2000/svg" id="twitter" width="58.374" height="58.374" viewBox="0 0 58.374 58.374">
    <defs>
        <style>
            .cls-1{fill:#55acee}.cls-2{fill:#f1f2f2}
        </style>
    </defs>
    <ellipse id="Ellipse_139" cx="29.187" cy="29.187" class="cls-1" data-name="Ellipse 139" rx="29.187" ry="29.187"/>
    <g id="Group_108" data-name="Group 108" transform="translate(13.06 17.704)">
        <path id="Path_1786" d="M59.108 37.3a13.919 13.919 0 0 1-4.008 1.1 7 7 0 0 0 3.068-3.859 13.966 13.966 0 0 1-4.43 1.692 6.982 6.982 0 0 0-11.888 6.362A19.8 19.8 0 0 1 27.47 35.3a6.984 6.984 0 0 0 2.159 9.315 6.927 6.927 0 0 1-3.16-.874v.088a6.981 6.981 0 0 0 5.6 6.84 7 7 0 0 1-3.15.121 6.984 6.984 0 0 0 6.517 4.845A14.083 14.083 0 0 1 25.1 58.528a19.734 19.734 0 0 0 10.7 3.135c12.832 0 19.85-10.631 19.85-19.851 0-.3-.007-.6-.02-.9a14.147 14.147 0 0 0 3.478-3.612z" class="cls-2" data-name="Path 1786" transform="translate(-25.103 -34.028)"/>
    </g>
</svg>
