<svg xmlns="http://www.w3.org/2000/svg" id="whatsapp" width="57.305" height="57.305" viewBox="0 0 57.305 57.305">
    <defs>
        <style>
            .cls-1{fill:#4caf50}.cls-2{fill:#fafafa}
        </style>
    </defs>
    <path id="Path_1787" d="M28.659 0h-.014a28.635 28.635 0 0 0-23.19 45.446L1.884 56.091 12.9 52.57A28.647 28.647 0 1 0 28.659 0z" class="cls-1" data-name="Path 1787"/>
    <path id="Path_1788" d="M140.59 144.444c-.691 1.952-3.435 3.571-5.623 4.044-1.5.319-3.453.573-10.035-2.156-8.42-3.488-13.843-12.045-14.265-12.6-.4-.555-3.4-4.531-3.4-8.642a9.147 9.147 0 0 1 2.93-6.973 4.163 4.163 0 0 1 2.93-1.028c.355 0 .673.018.96.032.842.036 1.264.086 1.819 1.415.691 1.665 2.375 5.777 2.575 6.2a1.705 1.705 0 0 1 .122 1.551 4.951 4.951 0 0 1-.928 1.314c-.423.487-.824.86-1.246 1.382-.387.455-.824.942-.337 1.784a25.432 25.432 0 0 0 4.649 5.777 21.065 21.065 0 0 0 6.719 4.144 1.812 1.812 0 0 0 2.02-.319 34.668 34.668 0 0 0 2.238-2.966 1.6 1.6 0 0 1 2.056-.623c.774.269 4.867 2.292 5.709 2.711s1.4.623 1.6.978a7.136 7.136 0 0 1-.493 3.975z" class="cls-2" data-name="Path 1788" transform="translate(-95.259 -103.983)"/>
</svg>
